<?xml version="1.0" encoding="UTF-8" standalone="no"?>
<svg
   xmlns:dc="http://purl.org/dc/elements/1.1/"
   xmlns:cc="http://creativecommons.org/ns#"
   xmlns:rdf="http://www.w3.org/1999/02/22-rdf-syntax-ns#"
   xmlns:svg="http://www.w3.org/2000/svg"
   xmlns="http://www.w3.org/2000/svg"
   xmlns:sodipodi="http://sodipodi.sourceforge.net/DTD/sodipodi-0.dtd"
   xmlns:inkscape="http://www.inkscape.org/namespaces/inkscape"
   inkscape:version="1.0beta2 (2b71d25, 2019-12-03)"
   sodipodi:docname="bloom-logo2.1.svg"
   width="63.686901pt"
   height="74.857719pt"
   viewBox="0 0 63.686901 74.857719"
   version="1.2"
   id="svg836">
  <sodipodi:namedview
     inkscape:current-layer="svg836"
     inkscape:window-maximized="0"
     inkscape:window-y="23"
     inkscape:window-x="0"
     inkscape:cy="49.905146"
     inkscape:cx="42.457934"
     inkscape:zoom="4.7607891"
     showgrid="false"
     id="namedview838"
     inkscape:window-height="896"
     inkscape:window-width="1557"
     inkscape:pageshadow="2"
     inkscape:pageopacity="0"
     guidetolerance="10"
     gridtolerance="10"
     objecttolerance="10"
     borderopacity="1"
     inkscape:document-rotation="0"
     bordercolor="#666666"
     pagecolor="#ffffff" />
  <metadata
     id="metadata842">
    <rdf:RDF>
      <cc:Work
         rdf:about="">
        <dc:format>image/svg+xml</dc:format>
        <dc:type
           rdf:resource="http://purl.org/dc/dcmitype/StillImage" />
        <dc:title />
      </cc:Work>
    </rdf:RDF>
  </metadata>
  <defs
     id="defs840" />
  <path
     id="path833"
     d="M 22.800781,0.00390625 C 10.21875,0.00390625 0,10.21875 0,22.800781 v 49.21875 c -0.0546875,3.785157 5.652344,3.785157 5.601562,0 v -49.21875 c 0,-9.574219 7.621094,-17.199219 17.199219,-17.199219 9.566407,0 17.171875,7.554688 17.171875,17.492188 -0.0039,0.08203 -0.105468,2.390625 -0.925781,4.9375 -0.835937,2.59375 -2.246094,4.886719 -4.480469,5.59375 -1.992187,0.632812 -3.695312,0.105469 -4.75,-0.847656 -1.050781,-0.953125 -1.53125,-2.160156 -0.902344,-3.910156 0.683594,-1.886719 2.777344,-3.078126 5.429688,-3.75 3.613281,-0.917969 2.242188,-6.335938 -1.371094,-5.429688 -3.511718,0.890625 -7.726562,2.847656 -9.324218,7.285156 -1.347657,3.738282 -0.152344,7.636719 2.410156,9.957032 2.5625,2.320312 6.414062,3.234374 10.199218,2.035156 C 41,37.460938 43.273438,33.179688 44.375,29.746094 c 1.105469,-3.429688 1.199219,-6.503906 1.199219,-6.503906 v -0.09375 C 45.601562,10.265625 35.382812,0 22.800781,0 Z M 51.378906,21.902344 C 48.582031,21.996094 47.640625,25.6875 50.050781,27.109375 55.988281,30.75 59.191406,38.3125 57.722656,45.125 l -0.0078,0.03516 -0.0078,0.03906 C 56.339844,52.539062 49.28125,58.601562 41.820312,58.847656 32.855469,58.90625 23.875,58.859375 14.875,58.875 c -3.789062,-0.04687 -3.777344,5.660156 0.0078,5.597656 8.992188,-0.01563 18.003907,0.03516 27.03125,-0.02344 h 0.07422 C 52.242188,64.117188 61.300781,56.347656 63.203125,46.265625 65.171875,37.054688 61.027344,27.269531 52.976562,22.335938 52.5,22.035156 51.941406,21.882812 51.378906,21.902344 Z m 0,0"
     style="fill:#ffffff;fill-opacity:1;fill-rule:nonzero;stroke:none"
     inkscape:connector-curvature="0" />
</svg>
