<?xml version="1.0" encoding="UTF-8" standalone="no"?>
<svg
   xmlns:dc="http://purl.org/dc/elements/1.1/"
   xmlns:cc="http://creativecommons.org/ns#"
   xmlns:rdf="http://www.w3.org/1999/02/22-rdf-syntax-ns#"
   xmlns:svg="http://www.w3.org/2000/svg"
   xmlns="http://www.w3.org/2000/svg"
   xmlns:sodipodi="http://sodipodi.sourceforge.net/DTD/sodipodi-0.dtd"
   xmlns:inkscape="http://www.inkscape.org/namespaces/inkscape"
   width="111"
   height="21.032211"
   viewBox="0 0 111 21.032211"
   fill="none"
   version="1.1"
   id="svg861"
   sodipodi:docname="logo-foxtrot.svg"
   inkscape:version="1.0.2 (e86c8708, 2021-01-15)">
  <metadata
     id="metadata867">
    <rdf:RDF>
      <cc:Work
         rdf:about="">
        <dc:format>image/svg+xml</dc:format>
        <dc:type
           rdf:resource="http://purl.org/dc/dcmitype/StillImage" />
        <dc:title></dc:title>
      </cc:Work>
    </rdf:RDF>
  </metadata>
  <defs
     id="defs865" />
  <sodipodi:namedview
     pagecolor="#ffffff"
     bordercolor="#666666"
     borderopacity="1"
     objecttolerance="10"
     gridtolerance="10"
     guidetolerance="10"
     inkscape:pageopacity="0"
     inkscape:pageshadow="2"
     inkscape:window-width="1773"
     inkscape:window-height="949"
     id="namedview863"
     showgrid="false"
     fit-margin-top="0"
     fit-margin-left="0"
     fit-margin-right="0"
     fit-margin-bottom="0"
     inkscape:zoom="5.7647059"
     inkscape:cx="51.500003"
     inkscape:cy="11.000007"
     inkscape:window-x="0"
     inkscape:window-y="25"
     inkscape:window-maximized="0"
     inkscape:current-layer="svg861" />
  <g
     id="g883"
     transform="translate(-7.9999971,-17.999993)">
    <path
       d="m 19.1279,34.2366 c 0,0 -4.0304,-0.6863 -7.0859,-4.0717 l 7.5838,0.9584 z"
       fill="#ffffff"
       id="path833" />
    <path
       d="m 19.7301,27.6203 0.1921,1.3763 -0.2963,1.6197 -8.25,-1.0435 c 0,0 -1.64536,-2.0829 -2.01652,-3.2969 z"
       fill="#ffffff"
       id="path835" />
    <path
       d="M 19.4739,26.9801 9.03915,25.6037 c 0,0 -1.18432,-1.9525 -1.02428,-3.1368 l 10.97893,1.5044 z"
       fill="#ffffff"
       id="path837" />
    <path
       d="M 25.0111,36.8387 C 24.6387,35.6011 23.9458,34.9394 22.937,34.6967 21.7963,34.4494 20.1459,34.214 20.1459,34.214 l 0.8322,-5.3134 -1.1843,-6.9778 c 0,0 -0.1043,-0.7523 -0.0789,-1.5679 0.0247,-0.7892 0.177,-1.6377 0.3029,-1.9211 0.2561,-0.5761 1.3444,-0.5121 1.7285,-0.192 0.1648,0.1374 1.0094,0.7953 1.8102,1.6477 1.0652,1.1338 2.1268,2.4115 2.1268,2.4115 h 4.2571 c 0,0 1.3583,-1.5971 2.0099,-2.2716 0.6515,-0.6745 1.8632,-1.6916 1.8632,-1.6916 0,0 1.1523,-0.7362 1.7284,0.064 0.5762,0.8003 0.3521,3.521 0.3521,3.521 l -1.2483,7.1379 0.7682,5.1213 c 0,0 -1.7068,0.1445 -3.0141,0.6518 -0.817,0.317 -1.3477,0.7812 -1.6431,1.5568 -0.6402,1.8565 -1.0723,2.6727 -3.0569,2.6407 -1.2589,0.0043 -2.0487,-0.509 -2.6887,-2.1926 z"
       fill="#ffffff"
       id="path839" />
    <path
       d="m 36.5701,33.9675 c 0,0 4.2793,-0.5052 7.3348,-3.8907 l -7.878,1.0037 z"
       fill="#ffffff"
       id="path841" />
    <path
       d="m 36.0585,27.5548 -0.2826,1.5348 0.2509,1.4839 8.4085,-1.0662 c 0,0 1.7812,-2.0828 2.1523,-3.2968 z"
       fill="#ffffff"
       id="path843" />
    <path
       d="m 36.1787,26.9373 10.729,-1.3537 c 0,0 1.0485,-2.111 1.0922,-3.1369 l -11.3411,1.4818 z"
       fill="#ffffff"
       id="path845" />
    <path
       d="m 56.5498,25.1815 h 4.8021 V 23.1983 H 54 v 9.7742 h 2.5498 v -3.9097 h 4.3771 v -1.9831 h -4.3771 z"
       fill="#ffffff"
       id="path847" />
    <path
       d="m 67.3471,23 c -3.0456,0 -5.0004,1.9407 -5.0004,5.0854 0,3.1305 1.9548,5.0854 5.0004,5.0854 3.0455,0 5.0004,-1.9549 5.0004,-5.0854 C 72.3475,24.9407 70.3926,23 67.3471,23 Z m 0,8.3009 c -1.4732,0 -2.394,-1.1474 -2.394,-3.2155 0,-2.0823 0.9208,-3.2156 2.394,-3.2156 1.4732,0 2.3939,1.1333 2.3939,3.2156 0,2.0681 -0.9207,3.2155 -2.3939,3.2155 z"
       fill="#ffffff"
       id="path849" />
    <path
       d="m 79.9557,32.9725 h 2.9748 l -3.4422,-4.9721 3.4138,-4.8021 h -2.9322 l -1.9832,3.2581 -1.8415,-3.2581 h -2.9747 l 3.258,4.8446 -3.4988,4.9296 h 3.0739 l 1.8982,-3.3006 z"
       fill="#ffffff"
       id="path851" />
    <path
       d="m 91.5543,24.1899 v -0.9916 h -8.1876 v 0.9916 h 3.4847 v 8.7826 h 1.2182 v -8.7826 z"
       fill="#ffffff"
       id="path853" />
    <path
       d="m 99.3925,30.4085 c -0.085,-0.9774 -0.4674,-1.8698 -1.2607,-2.2381 0.9066,-0.2833 1.7424,-1.0199 1.7424,-2.309 0,-1.6432 -1.02,-2.4223 -2.4365,-2.6064 -0.4391,-0.0567 -0.7791,-0.0567 -1.2749,-0.0567 h -3.2014 v 9.7741 h 1.2183 v -4.2071 h 1.8415 c 0.2266,0 0.4674,0 0.6941,0.0142 0.9632,0.0708 1.3457,0.7366 1.459,1.7423 0.1275,1.2041 0.255,1.8274 0.5241,2.4506 h 1.3456 c -0.3965,-0.5241 -0.5381,-1.289 -0.6515,-2.5639 z m -5.2128,-2.6347 v -3.5839 h 1.9831 c 0.4391,0 0.7083,0.0142 0.9774,0.0567 0.9066,0.1416 1.4307,0.6374 1.4307,1.7282 0,1.1049 -0.6657,1.6857 -1.5723,1.7707 -0.2692,0.0283 -0.51,0.0283 -0.9491,0.0283 z"
       fill="#ffffff"
       id="path855" />
    <path
       d="m 105.599,23 c -2.975,0 -4.618,2.0965 -4.618,5.0854 0,2.9747 1.643,5.0854 4.618,5.0854 2.975,0 4.618,-2.1107 4.618,-5.0854 0,-2.9889 -1.643,-5.0854 -4.618,-5.0854 z m 0,9.2075 c -2.054,0 -3.258,-1.5865 -3.258,-4.1221 0,-2.5498 1.204,-4.1222 3.258,-4.1222 2.054,0 3.258,1.5724 3.258,4.1222 0,2.5356 -1.204,4.1221 -3.258,4.1221 z"
       fill="#ffffff"
       id="path857" />
    <path
       d="m 119,24.1899 v -0.9916 h -8.188 v 0.9916 h 3.485 v 8.7826 h 1.218 v -8.7826 z"
       fill="#ffffff"
       id="path859" />
  </g>
</svg>
