<svg width="81" height="22" viewBox="0 0 81 22" fill="none" xmlns="http://www.w3.org/2000/svg">
<g clip-path="url(#clip0_22_127)">
<path d="M6.63238 0.00113132C2.97253 0.00113132 0.000114091 2.97516 0.000114091 6.6384V20.9683C-0.015828 22.0704 1.64426 22.0704 1.62949 20.9683V6.6384C1.62949 3.85088 3.8463 1.63088 6.63238 1.63088C9.41504 1.63088 11.6273 3.83041 11.6273 6.7237C11.6262 6.74758 11.5966 7.41972 11.358 8.16124C11.1149 8.9164 10.7047 9.584 10.0548 9.78985C9.47527 9.97409 8.97986 9.82056 8.67308 9.54305C8.36743 9.26556 8.22767 8.91413 8.41061 8.40462C8.60945 7.85531 9.21847 7.50843 9.98999 7.31282C11.041 7.04555 10.6422 5.46812 9.59116 5.73197C8.56968 5.99128 7.34367 6.56106 6.87894 7.85303C6.48694 8.94142 6.83463 10.0764 7.58001 10.752C8.32539 11.4276 9.44572 11.6937 10.5467 11.3445C11.9261 10.9067 12.5874 9.6602 12.9079 8.66051C13.2294 7.66197 13.2567 6.76691 13.2567 6.76691V6.73962C13.2648 2.98882 10.2922 0.00113132 6.63238 0.00113132ZM14.9452 6.37682C14.1316 6.40411 13.8578 7.47886 14.5588 7.89284C16.2859 8.9528 17.2176 11.1546 16.7904 13.1381L16.7881 13.1483L16.7858 13.1596C16.3881 15.2965 14.3349 17.0616 12.1646 17.1333C9.55695 17.1503 6.94473 17.1367 4.32682 17.1413C3.22466 17.1277 3.22807 18.7893 4.32915 18.7711C6.94478 18.7666 9.5661 18.7813 12.192 18.7643H12.2136C15.1962 18.6676 17.8312 16.4055 18.3845 13.4701C18.9572 10.7884 17.7516 7.93942 15.4098 6.50302C15.2712 6.41543 15.1088 6.37114 14.9452 6.37682Z" fill="white"/>
</g>
<g clip-path="url(#clip1_22_127)">
<path d="M30.7337 7.38461C29.5957 7.38461 28.5453 7.72649 27.648 8.30342V2H25V18.1966H27.648V17.2991C28.5453 17.8761 29.5957 18.2179 30.7337 18.2179C33.7757 18.2179 36.2705 15.782 36.2705 12.812C36.2705 9.82051 33.7757 7.38461 30.7337 7.38461ZM30.7337 15.6325C29.1362 15.6325 27.845 14.3504 27.845 12.812C27.845 11.2521 29.1362 9.99145 30.7337 9.99145C32.3094 9.99145 33.6225 11.2521 33.6225 12.812C33.6225 14.3504 32.3094 15.6325 30.7337 15.6325Z" fill="white"/>
<path d="M40.8213 18.2821H38.1514V2.06412H40.8213V18.2821Z" fill="white"/>
<path d="M47.4862 18.2821C44.4662 18.2821 42.0151 15.8889 42.0151 12.9402C42.0151 9.99146 44.4662 7.5983 47.4862 7.5983C50.5063 7.5983 52.9574 9.99146 52.9574 12.9402C52.9574 15.8889 50.5063 18.2821 47.4862 18.2821ZM47.4862 10.1624C45.9106 10.1624 44.6413 11.4231 44.6413 12.9402C44.6413 14.4786 45.9106 15.718 47.4862 15.718C49.04 15.718 50.3312 14.4786 50.3312 12.9402C50.3312 11.4231 49.04 10.1624 47.4862 10.1624Z" fill="white"/>
<path d="M58.8559 18.2821C55.8358 18.2821 53.3848 15.8889 53.3848 12.9402C53.3848 9.99146 55.8358 7.5983 58.8559 7.5983C61.8759 7.5983 64.327 9.99146 64.327 12.9402C64.327 15.8889 61.8759 18.2821 58.8559 18.2821ZM58.8559 10.1624C57.2802 10.1624 56.0109 11.4231 56.0109 12.9402C56.0109 14.4786 57.2802 15.718 58.8559 15.718C60.4097 15.718 61.7009 14.4786 61.7009 12.9402C61.7009 11.4231 60.4097 10.1624 58.8559 10.1624Z" fill="white"/>
<path d="M80.577 11.6795C80.5551 9.41452 78.5855 7.57691 76.1345 7.57691C74.9527 7.57691 73.8585 8.02563 73.0488 8.75213C72.2609 8.02563 71.1667 7.57691 69.963 7.57691C69.3503 7.57691 68.7594 7.68375 68.2342 7.91879V7.55554L65.5205 7.53418V18.3461H68.2342V11.7222C68.2342 10.8889 69.0001 10.2051 69.963 10.2051C70.926 10.2051 71.7357 10.8889 71.7357 11.7222V18.3034H74.4056V11.7222C74.4056 10.8889 75.1934 10.2051 76.1345 10.2051C77.1193 10.2051 77.9071 10.8889 77.9071 11.7222V18.3034H80.577V11.6795Z" fill="white"/>
</g>
<defs>
<clipPath id="clip0_22_127">
<rect width="18.5256" height="21.7949" fill="white"/>
</clipPath>
<clipPath id="clip1_22_127">
<rect width="55.5769" height="16.3462" fill="white" transform="translate(25 2)"/>
</clipPath>
</defs>
</svg>
