<?xml version="1.0" encoding="utf-8"?>
<!-- Generator: Adobe Illustrator 18.0.0, SVG Export Plug-In . SVG Version: 6.00 Build 0)  -->
<!DOCTYPE svg PUBLIC "-//W3C//DTD SVG 1.1//EN" "http://www.w3.org/Graphics/SVG/1.1/DTD/svg11.dtd">
<svg version="1.1" id="wh_layer" xmlns="http://www.w3.org/2000/svg" xmlns:xlink="http://www.w3.org/1999/xlink" x="0px" y="0px"
	 viewBox="0 0 612 792" enable-background="new 0 0 612 792" xml:space="preserve">
<rect x="302.3" y="499.9" fill="none" width="4" height="25.4"/>
<path fill="none" d="M295.6,511.2c-2.6-2.3-3.4-3.7-3.4-5.5c0-1.8,0.7-2.5,2-2.5s2,0.7,2,2.5v1.1h3.8V506c0-4.1-2-6.4-5.9-6.4
	s-5.9,2.3-5.9,6.4c0,2.9,1.1,5,4.4,8c2.6,2.3,3.4,3.7,3.4,5.5c0,1.8-0.8,2.5-2.1,2.5s-2.1-0.7-2.1-2.5v-1.8H288v1.6
	c0,4.1,2,6.4,6,6.4s6-2.3,6-6.4C300,516.3,298.9,514.2,295.6,511.2z"/>
<path fill="none" d="M266.8,499.9h-6.3v25.4h6.3c4,0,6-2.2,6-6.3v-12.9C272.8,502.1,270.8,499.9,266.8,499.9z M268.8,519.2
	c0,1.8-0.8,2.5-2,2.5h-2.3v-18.2h2.3c1.3,0,2,0.7,2,2.5V519.2z"/>
<polygon fill="none" points="275.3,525.3 286.2,525.3 286.2,521.7 279.3,521.7 279.3,514.2 284.8,514.2 284.8,510.6 279.3,510.6 
	279.3,503.5 286.2,503.5 286.2,499.9 275.3,499.9 "/>
<path fill="none" d="M285.8,429c4,0,8.8-3.2,10.5-7.2c1.8-4,0-7.3-4.1-7.3c-4,0-8.7,3.3-10.5,7.3C279.9,425.8,281.8,429,285.8,429z"
	/>
<path fill="none" d="M314.8,499.6c-3.9,0-6,2.3-6,6.4v13.2c0,4.1,2,6.4,6,6.4s6-2.3,6-6.4v-8.1h-5.6v3.6h1.8v4.7
	c0,1.8-0.8,2.5-2.1,2.5s-2.1-0.7-2.1-2.5v-13.7c0-1.8,0.8-2.5,2.1-2.5s2.1,0.7,2.1,2.5v2.7h3.8V506
	C320.7,501.9,318.7,499.6,314.8,499.6z"/>
<path fill="none" d="M412.8,443.5c-0.6-0.3-1.1-0.7-1.4-1.2c4-4.3,7.1-8.7,3.6-10.9c-3.2-2.1-9-3-12.8,1.7c-4,5-1.1,9.9,2,12.4
	c-4,4-11,9.8-15.5,9c0.9-2.6,1.3-4.8,1.6-6.7c0.7-4.5-0.1-10.1-3.8-10.1c-1.7,0-3.5,1-5,2.6c-0.1-1.6-0.5-3-1.7-3
	c-4.8,0-11.7,2.9-18.8,11.9c-7.4,6.2-16.1,13.3-17.6,14.6c-1.7,1.4-3.3,2.9-3.8,2.3c-0.5-0.5,1.3-4.2,2.2-5.9
	c1.1-2.1,5.1-9.5,9.4-17.7h7.8c1.1-2.1,1.8-3.4,1.8-3.4l-7.8,0.1c6.1-11.5,8.6-15.7,8.6-15.7h-10.5c0,0-2,3.6-8.6,15.7h-7.6
	c0,0-0.7,1.2-1.8,3.3h7.6c-0.7,1.4-1.5,2.7-2.2,4.1c-6.8,6.6-16.5,15.8-18.3,17.2c-1.7,1.4-3.2,2.9-3.8,2.3
	c-0.5-0.5,1.3-4.2,2.2-5.9c2.8-5.3,12.3-22.9,12.3-22.9l-10.5,0.1c0,0-1.6,3-3.9,7.3c-0.8-3.9-3.6-7.4-7.3-7.4
	c-5.5,0-13.3,4.2-22,16.7c-4.9,4.6-9.4,8.9-10.5,9.8c-1.7,1.4-3.3,2.9-3.8,2.3c-0.5-0.5,1.3-4.2,2.2-5.9
	c2.8-5.3,12.3-22.9,12.3-22.9l-10.5,0.1c0,0-2.2,4-5,9.3c-3.9,4.3-9.8,9.5-13.5,6.9c0,0,3.7-6.3,4.9-8.4c2.9-5.3-0.4-8.1-2.3-8.1
	c-5.4,0-12.5,12.3-10.4,19.3c-3.8,6.8-7.4,11.9-11.1,11.9c-3,0-3.2-2.9-1.9-6.1c3.6-9.2,9.8-25,9.8-25l-10.4,0.1
	c0,0-2.5,6.2-5.4,13.2c-6.1,5.8-12.7,12-14.1,13.2c-1.7,1.4-3.2,2.9-3.8,2.3c-0.5-0.5,1.3-4.2,2.2-5.9c2.8-5.3,12.3-22.9,12.3-22.9
	l-10.5,0.1c0,0-1.6,3-3.9,7.3c-0.8-3.9-3.6-7.4-7.3-7.4c-5.8,0-14.2,4.7-23.6,19c-9.4,14.2-6.7,24.8,2.3,24.8
	c4.5,0,9.2-3.2,13.1-7.1c-1.8,4.9,0.2,7.1,3.9,7.1c2.8,0,6.4-1.6,12.1-7c2.3-2.2,7.6-7.5,13.1-13c-0.9,2.2-1.7,4.2-2.3,5.8
	c-3,7.6-0.7,14.1,6.8,14.1c5.5,0,11.5-4.5,22.3-20.6c3.7,1.7,7.7,0.5,11.5-1.9c-3,5.7-5.7,10.7-6.7,12.5c-3.8,6.9-1.8,10,2.6,10
	c2.8,0,6.3-1.6,12.1-7c1.4-1.3,4-3.9,7.1-6.9c-2.2,8.4,1,13.9,7.4,13.9c4.5,0,9.2-3.2,13.1-7.1c-1.8,4.9,0.2,7.1,3.9,7.1
	c2.8,0,6.4-1.6,12.1-7c2.5-2.3,8.5-8.4,14.5-14.3c-3,5.7-5.3,10-6,11.3c-3.8,6.9-1.8,10,2.6,10c2.8,0,6.3-1.6,12.1-7
	c2.1-2,7.4-6.7,13.1-11.8c-4.3,11.3,0.2,18.8,7.9,18.8c7.2,0,15-5.1,22.2-15.9c0.8-1.3,1.5-2.4,2.2-3.6c8,1.3,18.4-9.1,22.8-13.9
	c1.3,0.8,2.2,2.3,0,5.9c-3.2,5.4-6.9,12.6-9.6,17.5c-3.7,6.9-1.8,10,2.6,10c2.7,0,6.4-1.6,12.1-7c-2.2-1.6-3.6-4.3,1.6-13.9
	c2.8-5.3,3.3-5.7,4.9-8.8C424.4,443.1,417.9,446.4,412.8,443.5z"/>
<polygon fill="none" points="332.4,515.1 332.3,515.1 328.3,499.9 323.3,499.9 323.3,525.3 326.9,525.3 326.9,506.9 327,506.9 
	331.9,525.3 336,525.3 336,499.9 332.4,499.9 "/>
<path d="M266.7,503.5h-2.3v18.2h2.3c1.3,0,2-0.7,2-2.5V506C268.8,504.1,268,503.5,266.7,503.5z"/>
<path fill="#FFFFFF" d="M112.2,538.2"/>
<text transform="matrix(1 0 0 1 189.8347 289.4991)" font-family="'BebasNeue'" font-size="120.9727">AGILE</text>
<g>
	<path d="M299.1,154.6c105.8,0,191.8,86,191.8,191.8c0,27.7-5.9,54-16.5,77.8c0.4,0.1,0.7,0.3,1.1,0.4c0.2,0.1,0.4,0.2,0.6,0.2
		l5.7,2c10.9-24.6,17-51.8,17-80.4c0-110-89.5-199.5-199.5-199.5c-90.5,0-167.2,60.7-191.5,143.5c1.2,0.6,2.3,1.1,3.1,1.6
		c1,0.5,2.3,1.3,3.7,2.1C137.4,213.7,211.5,154.6,299.1,154.6z"/>
	<path fill="none" d="M295.6,511.2c-2.6-2.3-3.4-3.7-3.4-5.5c0-1.8,0.7-2.5,2-2.5s2,0.7,2,2.5v1.1h3.8V506c0-4.1-2-6.4-5.9-6.4
		s-5.9,2.3-5.9,6.4c0,2.9,1.1,5,4.4,8c2.6,2.3,3.4,3.7,3.4,5.5c0,1.8-0.8,2.5-2.1,2.5s-2.1-0.7-2.1-2.5v-1.8H288v1.6
		c0,4.1,2,6.4,6,6.4s6-2.3,6-6.4C300,516.3,298.9,514.2,295.6,511.2z"/>
	<rect x="302.3" y="499.9" fill="none" width="4" height="25.4"/>
	<path fill="none" d="M314.8,499.6c-3.9,0-6,2.3-6,6.4v13.2c0,4.1,2,6.4,6,6.4s6-2.3,6-6.4v-8.1h-5.6v3.6h1.8v4.7
		c0,1.8-0.8,2.5-2.1,2.5s-2.1-0.7-2.1-2.5v-13.7c0-1.8,0.8-2.5,2.1-2.5s2.1,0.7,2.1,2.5v2.7h3.8V506
		C320.7,501.9,318.7,499.6,314.8,499.6z"/>
	<polygon fill="none" points="275.3,525.3 286.2,525.3 286.2,521.7 279.3,521.7 279.3,514.2 284.8,514.2 284.8,510.6 279.3,510.6 
		279.3,503.5 286.2,503.5 286.2,499.9 275.3,499.9 	"/>
	<path fill="none" d="M285.8,429c4,0,8.8-3.2,10.5-7.2c1.8-4,0-7.3-4.1-7.3c-4,0-8.7,3.3-10.5,7.3C279.9,425.8,281.8,429,285.8,429z
		"/>
	<path fill="none" d="M266.8,499.9h-6.3v25.4h6.3c4,0,6-2.2,6-6.3v-12.9C272.8,502.1,270.8,499.9,266.8,499.9z"/>
	<polygon fill="none" points="332.4,515.1 332.3,515.1 328.3,499.9 323.3,499.9 323.3,525.3 326.9,525.3 326.9,506.9 327,506.9 
		331.9,525.3 336,525.3 336,499.9 332.4,499.9 	"/>
	<circle fill="none" cx="242.9" cy="512.3" r="4.3"/>
	<path fill="none" d="M412.8,443.5c-0.6-0.3-1.1-0.7-1.4-1.2c4-4.3,7.1-8.7,3.6-10.9c-3.2-2.1-9-3-12.8,1.7c-4,5-1.1,9.9,2,12.4
		c-4,4-11,9.8-15.5,9c0.9-2.6,1.3-4.8,1.6-6.7c0.7-4.5-0.1-10.1-3.8-10.1c-1.7,0-3.5,1-5,2.6c-0.1-1.6-0.5-3-1.7-3
		c-4.8,0-11.7,2.9-18.8,11.9c-7.4,6.2-16.1,13.3-17.6,14.6c-1.7,1.4-3.3,2.9-3.8,2.3c-0.5-0.5,1.3-4.2,2.2-5.9
		c1.1-2.1,5.1-9.5,9.4-17.7h7.8c1.1-2.1,1.8-3.4,1.8-3.4l-7.8,0.1c6.1-11.5,8.6-15.7,8.6-15.7h-10.5c0,0-2,3.6-8.6,15.7h-7.6
		c0,0-0.7,1.2-1.8,3.3h7.6c-0.7,1.4-1.5,2.7-2.2,4.1c-6.8,6.6-16.5,15.8-18.3,17.2c-1.7,1.4-3.2,2.9-3.8,2.3
		c-0.5-0.5,1.3-4.2,2.2-5.9c2.8-5.3,12.3-22.9,12.3-22.9l-10.5,0.1c0,0-1.6,3-3.9,7.3c-0.8-3.9-3.6-7.4-7.3-7.4
		c-5.5,0-13.3,4.2-22,16.7c-4.9,4.6-9.4,8.9-10.5,9.8c-1.7,1.4-3.3,2.9-3.8,2.3c-0.5-0.5,1.3-4.2,2.2-5.9
		c2.8-5.3,12.3-22.9,12.3-22.9l-10.5,0.1c0,0-2.2,4-5,9.3c-3.9,4.3-9.8,9.5-13.5,6.9c0,0,3.7-6.3,4.9-8.4c2.9-5.3-0.4-8.1-2.3-8.1
		c-5.4,0-12.5,12.3-10.4,19.3c-3.8,6.8-7.4,11.9-11.1,11.9c-3,0-3.2-2.9-1.9-6.1c3.6-9.2,9.8-25,9.8-25l-10.4,0.1
		c0,0-2.5,6.2-5.4,13.2c-6.1,5.8-12.7,12-14.1,13.2c-1.7,1.4-3.2,2.9-3.8,2.3c-0.5-0.5,1.3-4.2,2.2-5.9c2.8-5.3,12.3-22.9,12.3-22.9
		l-10.5,0.1c0,0-1.6,3-3.9,7.3c-0.8-3.9-3.6-7.4-7.3-7.4c-5.8,0-14.2,4.7-23.6,19c-9.4,14.2-6.7,24.8,2.3,24.8
		c4.5,0,9.2-3.2,13.1-7.1c-1.8,4.9,0.2,7.1,3.9,7.1c2.8,0,6.4-1.6,12.1-7c2.3-2.2,7.6-7.5,13.1-13c-0.9,2.2-1.7,4.2-2.3,5.8
		c-3,7.6-0.7,14.1,6.8,14.1c5.5,0,11.5-4.5,22.3-20.6c3.7,1.7,7.7,0.5,11.5-1.9c-3,5.7-5.7,10.7-6.7,12.5c-3.8,6.9-1.8,10,2.6,10
		c2.8,0,6.3-1.6,12.1-7c1.4-1.3,4-3.9,7.1-6.9c-2.2,8.4,1,13.9,7.4,13.9c4.5,0,9.2-3.2,13.1-7.1c-1.8,4.9,0.2,7.1,3.9,7.1
		c2.8,0,6.4-1.6,12.1-7c2.5-2.3,8.5-8.4,14.5-14.3c-3,5.7-5.3,10-6,11.3c-3.8,6.9-1.8,10,2.6,10c2.8,0,6.3-1.6,12.1-7
		c2.1-2,7.4-6.7,13.1-11.8c-4.3,11.3,0.2,18.8,7.9,18.8c7.2,0,15-5.1,22.2-15.9c0.8-1.3,1.5-2.4,2.2-3.6c8,1.3,18.4-9.1,22.8-13.9
		c1.3,0.8,2.2,2.3,0,5.9c-3.2,5.4-6.9,12.6-9.6,17.5c-3.7,6.9-1.8,10,2.6,10c2.7,0,6.4-1.6,12.1-7c-2.2-1.6-3.6-4.3,1.6-13.9
		c2.8-5.3,3.3-5.7,4.9-8.8C424.4,443.1,417.9,446.4,412.8,443.5z"/>
	<circle fill="none" cx="353.5" cy="512.3" r="4.3"/>
	<path fill="none" d="M444.7,419.9c-53-12.2-146.7-32.6-151-33.4c-4.9-0.9-8.2-2.3-9.7-3.3c0.5-0.2,1.3-0.5,2.4-0.8
		c12.3-2.9,64.5-12,65-12.1l35.8-9.1c6.3,1.4,52.9,11.5,59.1,13.4c1.8,0.5,3.6,0.8,5.1,0.8c3.5,0,6-1.4,6.7-3.7
		c0.5-1.8-0.3-3.7-2-4.9c-1.1-0.7-4.3-1.8-16.2-5.5l-0.7-0.4c-0.2-0.1-0.4-0.2-0.5-0.4c-0.7-0.5-1.5-1-2.5-1.3
		c-5.3-1.4-10.5-2.8-15.8-4.3c-7.5-2.6-9-3.5-9.2-3.6c-0.8-0.7-1.4-1.2-1.9-1.6c-0.5-0.4-1.1-0.9-1.2-1c0,0-0.1-0.3,0-1.6
		c0.1-1,0.6-4.8,1.3-9.9h71.1c-4.9-95.8-84.3-172.2-181.2-172.2c-83.9,0-154.7,57.3-175.4,134.8c-0.4-0.2-0.7-0.5-1.1-0.7
		c-1.9-1.2-3.7-2.3-5.5-3.4c-4.5,16.2-6.9,33.2-6.9,50.8c0,7.1,0.4,14,1.2,20.9c9.7,2.8,19.2,4.7,19.8,4.8l40,4.8
		c-0.9,5-1.6,14.2,4.2,20.7c5.1,5.8,13.6,6.7,18.1,6.7c1.2,0,2-0.1,2.3-0.1l10.6-0.5l0.3,0c9.5-1.4,23.9-3.4,25.7-3.6
		c0.4,0.1,0.9,0.1,1.3,0.1c2.4,0.1,6.8,0.4,11.4,0.7c1.4,0.2,26.6,4.2,55.8,8.9c61.4,9.9,154.1,24.8,164.1,25.9c0.2,0,0.3,0,0.5,0
		c2.1-4,4.1-8,6-12.1c-7-1-14.2-2-21.1-3L444.7,419.9z"/>
	<path d="M299.1,157.6c-86.5,0-159.6,58.5-181.9,138c1.8,1.1,3.6,2.3,5.5,3.4c0.4,0.2,0.7,0.4,1.1,0.7
		c20.6-77.5,91.4-134.8,175.4-134.8c96.9,0,176.4,76.4,181.2,172.2h-71.1c-0.7,5.1-1.2,8.9-1.3,9.9c-0.1,1.3,0,1.6,0,1.6
		c0.1,0.2,0.7,0.7,1.2,1c0.5,0.4,1.2,1,1.9,1.6c0.2,0.2,1.7,1,9.2,3.6c5.3,1.4,10.5,2.8,15.8,4.3c1.1,0.3,1.9,0.9,2.5,1.3
		c0.2,0.1,0.4,0.3,0.5,0.4l0.7,0.4c11.9,3.8,15,4.8,16.2,5.5c1.8,1.1,2.6,3.1,2,4.9c-0.7,2.3-3.2,3.7-6.7,3.7
		c-1.6,0-3.3-0.3-5.1-0.8c-6.2-1.8-52.9-12-59.1-13.4l-35.8,9.1c-0.5,0.1-52.7,9.2-65,12.1c-1.1,0.3-1.9,0.5-2.4,0.8
		c1.5,1,4.8,2.4,9.7,3.3c4.4,0.8,98,21.3,151,33.4l5.5,0.8c6.9,1,14,1.9,21.1,3c10.6-23.6,16.6-49.7,16.6-77.2
		C487.9,242.3,403.2,157.6,299.1,157.6z"/>
	<path d="M299.1,538.2c-99,0-180.8-75.4-190.8-171.9c-2.7-0.9-5.4-1.8-7.8-2.8c8.7,102,94.5,182.3,198.7,182.3
		c23.2,0,45.5-4,66.3-11.3h0.1v0c48.4-17.1,88.3-52.4,111.4-97.6c-2.3-0.2-5.1-0.5-8.3-0.8C436.4,496.8,372.5,538.2,299.1,538.2z"/>
	<path d="M300.9,409.8c-29.2-4.7-54.4-8.8-55.8-8.9c-4.6-0.4-9-0.6-11.4-0.7c-0.4,0-0.9,0-1.3-0.1c-1.7,0.2-16.1,2.2-25.7,3.6
		l-0.3,0l-10.6,0.5c-0.3,0-1.1,0.1-2.3,0.1c-4.6,0-13.1-0.9-18.1-6.7c-5.7-6.5-5.1-15.7-4.2-20.7l-40-4.8
		c-0.6-0.1-10.1-1.9-19.8-4.8c10.4,94.3,90.6,167.9,187.6,167.9c71.8,0,134.4-40.3,166.3-99.5c-0.2,0-0.3,0-0.5,0
		C455,434.6,362.2,419.7,300.9,409.8z M281.7,421.8c1.8-4,6.5-7.3,10.5-7.3c4.1,0,5.9,3.3,4.1,7.3c-1.8,4-6.5,7.2-10.5,7.2
		C281.8,429,279.9,425.8,281.7,421.8z M242.9,516.6c-2.4,0-4.3-1.9-4.3-4.3s1.9-4.3,4.3-4.3s4.3,1.9,4.3,4.3
		S245.2,516.6,242.9,516.6z M272.8,519c0,4.1-2,6.3-6,6.3h-6.3v-25.4h6.3c4,0,6,2.2,6,6.3V519z M286.2,503.5h-6.9v7.1h5.5v3.6h-5.5
		v7.4h6.9v3.6h-10.9v-25.4h10.9V503.5z M294,525.6c-3.9,0-6-2.3-6-6.4v-1.6h3.8v1.8c0,1.8,0.8,2.5,2.1,2.5s2.1-0.7,2.1-2.5
		c0-1.9-0.8-3.2-3.4-5.5c-3.3-2.9-4.4-5-4.4-8c0-4.1,2-6.4,5.9-6.4s5.9,2.3,5.9,6.4v0.8h-3.8v-1.1c0-1.8-0.7-2.5-2-2.5s-2,0.7-2,2.5
		c0,1.9,0.8,3.2,3.4,5.5c3.3,2.9,4.4,5.1,4.4,8C300,523.3,297.9,525.6,294,525.6z M306.2,525.3h-4v-25.4h4V525.3z M320.7,508.4H317
		v-2.7c0-1.8-0.8-2.5-2.1-2.5s-2.1,0.7-2.1,2.5v13.7c0,1.8,0.8,2.5,2.1,2.5s2.1-0.7,2.1-2.5v-4.7h-1.8v-3.6h5.6v8.1
		c0,4.1-2,6.4-6,6.4s-6-2.3-6-6.4V506c0-4.1,2-6.4,6-6.4s6,2.3,6,6.4V508.4z M336,525.3h-4.1l-4.9-18.4h-0.1v18.4h-3.6v-25.4h5
		l4,15.2h0.1v-15.2h3.6V525.3z M353.5,516.6c-2.4,0-4.3-1.9-4.3-4.3s1.9-4.3,4.3-4.3s4.3,1.9,4.3,4.3S355.9,516.6,353.5,516.6z
		 M420,451.5c-1.6,3.2-2.1,3.5-4.9,8.8c-5.3,9.6-3.9,12.3-1.6,13.9c-5.7,5.4-9.4,7-12.1,7c-4.3,0-6.3-3.2-2.6-10
		c2.7-4.9,6.3-12.1,9.6-17.5c2.1-3.6,1.3-5.1,0-5.9c-4.4,4.8-14.8,15.2-22.8,13.9c-0.7,1.2-1.4,2.4-2.2,3.6
		c-7.2,10.7-15,15.9-22.2,15.9c-7.7,0-12.2-7.4-7.9-18.8c-5.7,5.1-11,9.8-13.1,11.8c-5.7,5.4-9.3,7-12.1,7c-4.3,0-6.3-3.2-2.6-10
		c0.7-1.3,3-5.6,6-11.3c-5.9,5.9-12,12-14.5,14.3c-5.7,5.4-9.3,7-12.1,7c-3.7,0-5.7-2.2-3.9-7.1c-3.9,3.9-8.6,7.1-13.1,7.1
		c-6.5,0-9.7-5.5-7.4-13.9c-3.1,3-5.7,5.6-7.1,6.9c-5.7,5.4-9.3,7-12.1,7c-4.3,0-6.3-3.2-2.6-10c1-1.8,3.7-6.9,6.7-12.5
		c-3.7,2.4-7.8,3.6-11.5,1.9c-10.9,16.1-16.8,20.6-22.3,20.6c-7.5,0-9.8-6.5-6.8-14.1c0.6-1.6,1.4-3.6,2.3-5.8
		c-5.5,5.5-10.8,10.8-13.1,13c-5.7,5.4-9.3,7-12.1,7c-3.7,0-5.7-2.2-3.9-7.1c-3.9,3.9-8.6,7.1-13.1,7.1c-9,0-11.7-10.5-2.3-24.8
		c9.4-14.2,17.8-19,23.6-19c3.8,0,6.5,3.5,7.3,7.4c2.3-4.3,3.9-7.3,3.9-7.3l10.5-0.1c0,0-9.4,17.5-12.3,22.9c-1,1.8-2.8,5.4-2.2,5.9
		c0.6,0.6,2.1-0.9,3.8-2.3c1.4-1.2,8-7.4,14.1-13.2c2.9-7,5.4-13.2,5.4-13.2l10.4-0.1c0,0-6.1,15.8-9.8,25c-1.3,3.2-1.1,6.1,1.9,6.1
		c3.8,0,7.4-5.1,11.1-11.9c-2.1-7,5-19.3,10.4-19.3c1.9,0,5.2,2.8,2.3,8.1c-1.2,2.1-4.9,8.4-4.9,8.4c3.7,2.5,9.5-2.6,13.5-6.9
		c2.8-5.3,5-9.3,5-9.3l10.5-0.1c0,0-9.4,17.5-12.3,22.9c-1,1.8-2.8,5.4-2.2,5.9c0.5,0.6,2.1-0.9,3.8-2.3c1.1-0.9,5.6-5.2,10.5-9.8
		c8.7-12.5,16.6-16.7,22-16.7c3.8,0,6.5,3.5,7.3,7.4c2.3-4.3,3.9-7.3,3.9-7.3l10.5-0.1c0,0-9.4,17.5-12.3,22.9
		c-1,1.8-2.8,5.4-2.2,5.9c0.6,0.6,2.1-0.9,3.8-2.3c1.7-1.4,11.5-10.6,18.3-17.2c0.7-1.4,1.5-2.7,2.2-4.1h-7.6
		c1.1-2.1,1.8-3.3,1.8-3.3h7.6c6.5-12.2,8.6-15.7,8.6-15.7h10.5c0,0-2.5,4.3-8.6,15.7l7.8-0.1c0,0-0.7,1.3-1.8,3.4h-7.8
		c-4.3,8.2-8.3,15.5-9.4,17.7c-1,1.8-2.8,5.4-2.2,5.9c0.5,0.6,2.1-0.9,3.8-2.3c1.5-1.2,10.2-8.4,17.6-14.6c7.1-9,14-11.9,18.8-11.9
		c1.2,0,1.6,1.4,1.7,3c1.5-1.6,3.3-2.6,5-2.6c3.6,0,4.5,5.5,3.8,10.1c-0.3,1.8-0.7,4.1-1.6,6.7c4.5,0.8,11.5-5,15.5-9
		c-3.1-2.6-6-7.4-2-12.4c3.8-4.7,9.6-3.8,12.8-1.7c3.5,2.2,0.3,6.7-3.6,10.9c0.4,0.5,0.9,0.9,1.4,1.2
		C417.9,446.4,424.4,443.1,420,451.5z"/>
</g>
<path d="M489.8,429.7c-1.1-0.6-10.5-3-24.7-6.3c-12.3-1.5-24.6-3-36.9-4.6c-4.4-0.6-8.8-1.5-13.2-2.2l-5.7-0.9l-33.3-5.3
	c-38.6-6.4-77.3-12.6-116-18.6c-6.3-1-12.9-0.2-19.4,0.1c-1.3,0.1-27.9,2.2-30.2,2.7c-2.6,0.5-4.9,3.2-7.2-0.9c-0.6-1-3.5-1-5.3-1.1
	c-10.1-0.7-15.3-8.6-13.2-18.5c0.5-2.4,1-7.2-4.6-7.7c-7.9-0.6-26.6-1.8-27.9-2c-3.6-0.4-7.1-1-10.7-1.7c-3.2-0.7-36-2.7-51.5-22
	c-1.5-1.8-2.8-4.2-3.8-6.6c-0.3-0.7,0.4-1.9,0.7-2.9c0.3,0.9,0.5,1.8,0.9,2.7c0.5,0.9,1.4,2.5,1.9,2.4c4-0.5,7,0.6,9.2,4.1
	c0.1,0.2,2.6-0.8,2.6-0.9c-0.8-4.6,3-3.6,5.1-3.9c7.8-1.1,15.7-2,23.6-2.7c1.8-0.2,3.8,0.9,5.7,1.3c0.7,0.2,1.7,0.7,2.1,0.5
	c5.6-3,10.2-0.5,15.1,2.2c2.7,1.5,6.1,1.4,9.2,2.1c1,0.2,1.8,1,2.6,1.5c-0.9,0.4-1.8,1-2.8,1.3c-1.4,0.4-2.8,0.6-4.2,1
	c1.4,0.4,2.7,0.8,4.1,1.1c7.2,1.4,14.3,2.6,17.2,11.2c1.6,4.7,5,8.8,7.5,13.2c0.3,0.5,0.7,0.9,1,1.4c0.3-0.6,0.7-1.3,0.7-1.9
	c0-3.3-0.4-6.6-0.2-9.9c0-1.2,0.9-3.2,1.6-3.3c1.1-0.2,2.6,0.7,3.8,1.4c2.5,1.4,4.9,3.2,7.5,4.5c2.1,1,1.6,2.1,0.8,4.5
	c-0.6,2.2,0.4,5.3,1.6,7.5c3.8,6.4,9.8,7.7,16.9,7.2c4.4-0.3,8.9,0.5,13.3,0.8c4.2,0.2,8.5,0.3,12.7,0.6c0.6,0,1.1,0.7,1.7,1.1
	c-0.6,0-1.3,0-1.9,0c-1.8,0.1-3.5,0.2-5.3,0.4c1.7,0.6,3.4,1.5,5.2,1.9c25.7,4.7,51.3,9.4,77,14.1c28.5,5.2,56.9,10.7,85.4,15.5
	c14.1,2.3,28.2,4.3,42.3,6.3c-54.4-12.5-147-32.7-151-33.4c-10.9-2.1-18.7-7.2-7.4-9.9c12.5-3,65.2-12.1,65.2-12.1l36.3-9.2
	c0,0,53.2,11.6,60.1,13.6c6.8,2,9.7-0.9,7.3-2.4c-1-0.7-9-3.1-18-6c-0.5,0-1-0.1-1.4-0.2c-11.3-2.8-22.7-5.2-33.8-8.5
	c-6.5-1.9-12.6-1.7-18.9-0.1c-7.2,1.9-14.5,3.6-21.7,5.7c-1.6,0.5-9.6,2.4-10.2,2.5c-9.4,1.8-49.1,9.2-49.1,9.2
	c-5.6,1.4-8.9-2.3-8.2-8.1c0.1-0.8-1.2-2.3-2.2-2.5c-3.9-1.1-7.5-2.1-9-6.8c-0.4-1.1-3.7-1.1-5.3-2.1c-1.5-0.9-2.5-2.4-3.7-3.7
	c1.4-0.3,2.7-0.7,4.1-0.8c2-0.2,4-0.1,6-0.1c-1.9-0.6-3.8-1.6-5.7-1.8c-5.3-0.5-10.7-0.6-16-1.2c-1.3-0.1-3.6-1.5-3.6-2.2
	c0.1-3,0.5-6.3,5.1-5.9c5.9,0.5,11.9,0.8,17.9,1.2c12,0.9,24,1.9,36,2.9c4.8,0.4,9.6,0.5,14.4,1c0.3,0,0.5,1.9,0.6,2.9
	c0.1,0.8,0,1.7,0,2.5c0.4-0.6,0.9-1.2,1.3-1.8c0.8-1.2,0.9-6.9,3-0.5c0.1,0.3,1.1,0.6,1.2,0.5c2.8-4.1,3.2,0.6,4.7,1.2
	c0.9,0.4,2.1,0.1,3.2,0c0.3,0,0.6-0.6,0.9-0.9c-0.4,3.6,2.6,3.5,4.8,4.3c1.5,0.6,3,1.3,4.4,1.9c0.1-1,0.2-2,0.3-3.1
	c0-0.3,0.1-0.6,0.2-0.9c0.4,0.2,1.3,0.3,1.3,0.5c0.3,6.7,5.1,4,8.1,3.4c3.2-0.6,6.1-2.6,9.3-3.8c1.7-0.6,3.8-1.3,5.4-0.9
	c13.2,3.4,26.3,6.9,39.5,10.5c-5.4-1.8-9.4-3.4-10.4-4.3c-3.2-2.9-4.5-2.7-4.1-6.9c0.4-4.1,7.4-53.4,7.4-53.4s3.3-9.3-2-11.1
	c-4.9-1.7-11.3-3.1-14.8,0.4c-0.4,1.1-0.5,2.4-1.1,3.3c-3.6,5-7.3,10-11.2,14.8c-6.5,8-13.3,15.8-19.9,23.6
	c-0.5,0.6-1.2,0.9-1.8,1.4c0.2-0.7,0.1-1.6,0.6-2.1c2.4-3.1,4.9-6.3,7.3-9.4c-7.8,9.2-14.3,16.9-14.3,16.9s-37.1-6.9-56.7-8.7
	c-19.7-1.8-140.7-15-147.3-15.7c-6.7-0.7-19.3,0.8-20.6,0.6c-1.3-0.1-15.6-9.7-21.1-12.6s-20.1-9.6-24.2-10.3
	c-4.1-0.8-13-1.7-11.7,1.9c1.2,3.7,11.7,16,17.2,21.7c5.5,5.7,8.3,9.2,8.3,9.2s4.8,3.4,2.9,5.8c0,0-24.6,2.4-24.8,12.7
	c-0.2,10.2,11.7,19.5,23.3,24.7c11.6,5.1,31.4,8.9,31.4,8.9l43.1,5.2c0,0-4.3,13.3,2.7,21.3c5.9,6.7,18,5.6,18,5.6l10.6-0.5
	c0,0,26.9-3.9,26-3.6c-0.1,0,6.3,0.3,13.1,0.8c2.5,0.2,205,33.2,219.9,34.9C487,431.7,494.6,432.5,489.8,429.7z M387.3,307.3
	c-0.1-0.9,2.4-2.1,2.5-2.1c6.1-0.2,7.6,2.1,7.1,5.9c-0.4,3.1-0.9,5.9-5.3,5.5C384.3,316,387.7,310.7,387.3,307.3z M248.1,336.6
	c0.5-3.3,1.4-3.9,5.8-3.3c3.7,0.5,4.2,0.9,3.9,3.2c-0.5,4.2-1.8,5.3-5.2,4.9C248.4,341,247.6,340.1,248.1,336.6z M234,331.5
	c0.6,0,1.3,0.1,2.5,0.3c3.2,0.4,3.6,0.8,3.3,3.1c-0.5,3.6-2,5.1-5.2,4.7c-1.7-0.2-3.9,0.4-4.8-2.1
	C228.4,333.6,229.8,331.4,234,331.5z M211.3,332.3c0.7-2.3,1.7-2.7,6-2.2c1.1,0.7,3.7-0.7,3.6,2.3c-0.3,4.3-1.8,6-5,5.7
	C211.2,337.8,210.1,336.3,211.3,332.3z M192.3,332.3c0.4-3.6,1.3-4.3,5.4-3.8c3.6,0.4,4.3,1,4,3.8c-0.4,3.8-1.4,4.5-5.7,4
	C192.5,335.8,192,335.2,192.3,332.3z M172.7,330.1c0.4-3.6,1.3-4.3,5.4-3.8c3.6,0.4,4.3,1,4,3.8c-0.4,3.8-1.4,4.5-5.7,4
	C173,333.7,172.4,333.1,172.7,330.1z M121,307.2c2.5-0.2,5.1-0.3,7.6-0.4c0,0.1,0,0.2,0,0.3c1.4,0.2,3.1-0.1,4.2,0.6
	c1.5,0.9,2.5,2.5,3.7,3.8c-1.3-0.4-2.6-1-4-1.2c-3.7-0.5-7.5-0.8-11.2-1.3c-0.6-0.1-1.2-0.6-1.8-0.9
	C119.9,307.8,120.4,307.3,121,307.2z M114.7,314c0.4-0.5,0.9-1.2,1.4-1.2c4.6,0.1,9.2,0.1,13.8,0.6c4.5,0.5,8.9,2.1,13.3,2.2
	c6.2,0.2,4.4,4.3,4.4,7.6c0,4.8-3.3,3-7.2,2.7c-0.8-0.5-2.6-1.7-4.5-2.8c-0.5-0.3-1.4-0.7-1.7-0.5c-5.6,3.8-10.9-0.5-16.4-0.7
	C113.3,321.8,111.9,317.6,114.7,314z M99.4,324.4c3.1-0.8,6.1-1.9,9.2-2.1c2.3-0.1,4.6,1,6.9,1.9c0.4,0.2,0.5,1.4,0.7,2.1
	c-0.7-0.1-1.4-0.1-2.1-0.2c0,0.3,0,0.6,0,0.9c-4.8,0.1-9.6,0.2-14.4,0.1c-1.3,0-2.7-1.1-4-1.6C96.9,325.1,98.2,324.7,99.4,324.4z"/>
<path fill="#D2B16B" d="M207.9,445c-3.4,0-9.6,5.8-13.9,12.9c-4.2,7.1-4.9,12.9-1.5,12.9c3.4,0,9.6-5.8,13.8-12.9
	C210.6,450.8,211.3,445,207.9,445z"/>
<path fill="#D2B16B" d="M310.8,445c-3.4,0-9.6,5.8-13.9,12.9c-4.2,7.1-4.9,12.9-1.5,12.9c3.4,0,9.6-5.8,13.8-12.9
	C313.5,450.8,314.1,445,310.8,445z"/>
<path fill="#D2B16B" d="M378.2,446c-3.4,2-7.7,6.5-10.9,11.9c-4.2,7.1-4.9,12.9-1.5,12.9c4.5,0,9.8-7.4,13.2-13.8
	C376.9,453.6,377,449.4,378.2,446z"/>
<path fill="#FFFFFF" d="M112.2,538.2"/>
<path d="M207.9,445c-3.4,0-9.6,5.8-13.9,12.9c-4.2,7.1-4.9,12.9-1.5,12.9c3.4,0,9.6-5.8,13.8-12.9C210.6,450.8,211.3,445,207.9,445z
	"/>
<path d="M310.8,445c-3.4,0-9.6,5.8-13.9,12.9c-4.2,7.1-4.9,12.9-1.5,12.9c3.4,0,9.6-5.8,13.8-12.9C313.5,450.8,314.1,445,310.8,445z
	"/>
<path d="M378.2,446c-3.4,2-7.7,6.5-10.9,11.9c-4.2,7.1-4.9,12.9-1.5,12.9c4.5,0,9.8-7.4,13.2-13.8C376.9,453.6,377,449.4,378.2,446z
	"/>
</svg>
