<svg width="133" height="18" viewBox="0 0 133 18" fill="none" xmlns="http://www.w3.org/2000/svg">
<g clip-path="url(#clip0_22_111)">
<path d="M21.6551 6.33828C21.6551 8.19647 20.6587 10.0285 18.6945 11.7829C18.6074 11.8605 18.4994 11.8985 18.3923 11.8985C18.2658 11.8985 18.1411 11.8462 18.0507 11.7441C17.884 11.5542 17.9008 11.2639 18.09 11.0952C19.8508 9.52219 20.7433 7.92222 20.7433 6.33828V6.31634C20.7433 5.03113 19.9437 3.51808 18.9223 2.87252C18.7088 2.7375 18.6443 2.45312 18.7782 2.23878C18.9122 2.02359 19.1935 1.95861 19.407 2.09363C20.6881 2.90374 21.6551 4.71975 21.6551 6.31634V6.33828ZM15.7381 10.215C15.6678 10.2555 15.5916 10.2741 15.5162 10.2741C15.3563 10.2741 15.2014 10.1888 15.1177 10.0395C14.9946 9.81754 15.0733 9.53738 15.2935 9.41417C16.3485 8.8184 17.0577 7.66062 17.061 6.53068C17.0585 5.49188 16.4908 4.54675 15.5765 4.06237C15.3538 3.94423 15.2684 3.6666 15.3856 3.44213C15.5029 3.21766 15.7783 3.13159 16.001 3.24889C17.2134 3.89191 17.9669 5.14505 17.9728 6.52393V6.53828C17.9669 7.98719 17.0702 9.46396 15.7381 10.215ZM12.0784 8.86566C10.9858 8.8648 10.1008 7.97201 10.1008 6.8716C10.1008 5.77036 10.9858 4.87755 12.0784 4.8767C13.1702 4.87757 14.0552 5.77036 14.0552 6.8716C14.0552 7.97201 13.1702 8.86482 12.0784 8.86566ZM9.03831 10.0395C8.95458 10.1888 8.79969 10.2741 8.6406 10.2741C8.56441 10.2741 8.48822 10.2555 8.41789 10.215C7.0858 9.46396 6.18908 7.98719 6.18322 6.53828V6.52393C6.18824 5.14505 6.94263 3.89191 8.15415 3.24889C8.37686 3.13159 8.65316 3.21766 8.77038 3.44213C8.8876 3.6666 8.8022 3.94423 8.57865 4.06237C7.66519 4.54675 7.09752 5.49188 7.09501 6.53068C7.09752 7.66062 7.80752 8.8184 8.86248 9.41417C9.08268 9.53738 9.16139 9.81754 9.03831 10.0395ZM6.10536 11.7441C6.01493 11.8462 5.88934 11.8985 5.76459 11.8985C5.65658 11.8985 5.54857 11.8605 5.4615 11.7829C3.49727 10.0285 2.50092 8.19647 2.50092 6.33828V6.31634C2.50092 4.71975 3.46796 2.90374 4.74898 2.09363C4.96249 1.95861 5.24381 2.02359 5.37777 2.23878C5.51173 2.45312 5.44727 2.7375 5.23376 2.87252C4.2123 3.51808 3.4127 5.03113 3.4127 6.31634V6.33828C3.4127 7.92222 4.30523 9.52219 6.06601 11.0952C6.25523 11.2639 6.27197 11.5542 6.10536 11.7441ZM17.5768 0C15.296 0 13.2581 1.2177 12.0784 2.99573C10.8979 1.2177 8.85997 0 6.57925 0C2.94467 0 0 2.96788 0 6.63026C0 8.95426 1.4602 10.6302 2.9857 12.1804L8.95039 17.8638C9.26353 18.1617 9.77761 17.9389 9.77761 17.5052V13.0766C9.77761 11.7956 10.8075 10.7568 12.0784 10.7551C13.3486 10.7568 14.3784 11.7956 14.3784 13.0766V17.5052C14.3784 17.9389 14.8925 18.1617 15.2048 17.8638L21.1703 12.1804C22.6958 10.6302 24.156 8.95426 24.156 6.63026C24.156 2.96788 21.2113 0 17.5768 0Z" fill="white"/>
<path d="M85.0866 10.4412C86.8758 10.4412 88.1526 9.51375 88.1526 7.96948V7.93573C88.1526 6.45812 87.029 5.56615 85.1033 5.56615H81.4235V10.4412H85.0866ZM80.0789 4.99907C80.0789 4.62186 80.3845 4.31216 80.742 4.31216H85.2063C86.6707 4.31216 87.8454 4.75857 88.5955 5.51383C89.1749 6.09778 89.5157 6.93912 89.5157 7.88341V7.918C89.5157 9.89265 88.1861 11.042 86.3307 11.404L89.2947 15.2478C89.4311 15.4039 89.5157 15.5575 89.5157 15.7466C89.5157 16.1069 89.1749 16.4166 88.8342 16.4166C88.5612 16.4166 88.3569 16.263 88.2037 16.0554L84.8479 11.6614H81.4235V15.7297C81.4235 16.1069 81.1171 16.4166 80.742 16.4166C80.3845 16.4166 80.0789 16.1069 80.0789 15.7297V4.99907Z" fill="white"/>
<path d="M99.4289 11.9179L96.686 5.77206L93.9431 11.9179H99.4289ZM90.9951 15.4377L95.8336 4.7763C96.0028 4.39825 96.2598 4.17462 96.686 4.17462H96.7538C97.1624 4.17462 97.4362 4.39825 97.5877 4.7763L102.427 15.42C102.477 15.5415 102.513 15.6613 102.513 15.7651C102.513 16.1246 102.223 16.4166 101.865 16.4166C101.541 16.4166 101.319 16.1938 101.201 15.9196L99.9563 13.1542H93.4148L92.1706 15.9525C92.0525 16.2444 91.8307 16.4166 91.5225 16.4166C91.1835 16.4166 90.9097 16.1415 90.9097 15.7989C90.9097 15.6968 90.9272 15.5753 90.9951 15.4377Z" fill="white"/>
<path d="M108.558 15.0782C111.573 15.0782 113.498 13.0175 113.498 10.3551V10.3222C113.498 7.66063 111.573 5.56615 108.558 5.56615H105.764V15.0782H108.558ZM104.419 4.99907C104.419 4.62186 104.725 4.31216 105.083 4.31216H108.558C112.306 4.31216 114.894 6.90452 114.894 10.2876V10.3222C114.894 13.7036 112.306 16.3314 108.558 16.3314H105.083C104.725 16.3314 104.419 16.0217 104.419 15.6444V4.99907Z" fill="white"/>
<path d="M117.192 4.91214C117.192 4.53577 117.5 4.22607 117.858 4.22607C118.232 4.22607 118.538 4.53577 118.538 4.91214V15.7297C118.538 16.1069 118.232 16.4166 117.858 16.4166C117.5 16.4166 117.192 16.1069 117.192 15.7297V4.91214Z" fill="white"/>
<path d="M131.604 10.3551V10.3222C131.604 7.59143 129.628 5.3594 126.901 5.3594C124.176 5.3594 122.235 7.55768 122.235 10.2876V10.3222C122.235 13.0512 124.209 15.2833 126.936 15.2833C129.661 15.2833 131.604 13.0858 131.604 10.3551ZM120.837 10.3551V10.3222C120.837 7.00747 123.308 4.10626 126.936 4.10626C130.565 4.10626 133 6.97372 133 10.2876V10.3222C133 13.6352 130.53 16.5373 126.901 16.5373C123.273 16.5373 120.837 13.669 120.837 10.3551Z" fill="white"/>
<path d="M32.2249 4.16025H35.5723V8.71628H39.8674V4.16025H43.2132V16.3305H39.8674V11.7069H35.5723V16.3305H32.2249V4.16025Z" fill="white"/>
<path d="M50.5265 10.8091C50.5265 9.80402 49.8023 9.15087 48.9056 9.15087C48.0424 9.15087 47.3608 9.82259 47.2838 10.8091H50.5265ZM44.1792 11.6715V11.6369C44.1792 8.89012 46.1275 6.71716 48.888 6.71716C52.114 6.71716 53.5968 9.09855 53.5968 11.8631C53.5968 12.0715 53.5968 12.3137 53.58 12.5415H47.3349C47.5944 13.5677 48.3354 14.09 49.3535 14.09C50.1305 14.09 50.7509 13.793 51.4241 13.1314L53.2359 14.6436C52.3375 15.7921 51.044 16.5566 49.181 16.5566C46.2489 16.5566 44.1792 14.593 44.1792 11.6715Z" fill="white"/>
<path d="M64.6194 6.92477H67.8956V8.82009C68.4315 7.53319 69.2938 6.69945 70.8453 6.76865V10.2462H70.5698C68.8627 10.2462 67.8956 11.2369 67.8956 13.4107V16.3305H64.6194V6.92477Z" fill="white"/>
<path d="M72.8926 13.4107V9.58462H71.7908V6.92476H72.8926V4.54337H76.1714V6.92476H78.3449V9.58462H76.1714V12.7677C76.1714 13.4284 76.4661 13.7052 77.0681 13.7052C77.4993 13.7052 77.9137 13.5837 78.3106 13.393V15.9828C77.7245 16.3136 76.9475 16.5229 76.0332 16.5229C74.0681 16.5229 72.8926 15.652 72.8926 13.4107Z" fill="white"/>
<path d="M29.0121 3.28348C28.0509 3.28348 27.2722 4.06827 27.2722 5.03703C27.2722 6.00495 28.0509 6.78974 29.0121 6.78974C29.9724 6.78974 30.7511 6.00495 30.7511 5.03703C30.7511 4.06827 29.9724 3.28348 29.0121 3.28348Z" fill="white"/>
<path d="M58.4563 14.4529C57.6073 14.4892 57.1024 13.9955 57.1024 13.404C57.1024 12.831 57.5537 12.5348 58.3776 12.5348H60.2464V12.6378C60.2355 13.0242 60.0789 14.382 58.4563 14.4529ZM63.3518 11.604C63.3518 8.68339 61.2813 6.71887 58.35 6.71887C56.4862 6.71887 55.1926 7.48342 54.2951 8.63192L56.1069 10.1441C56.7801 9.48253 57.4005 9.18634 58.1775 9.18634C59.1839 9.18634 59.919 9.69772 60.1861 10.7011L60.1886 10.7728L58.031 10.7829C55.3492 10.8175 53.9409 11.8251 53.9409 13.7339C53.9409 15.571 55.2404 16.5567 57.4784 16.5567C58.6907 16.5567 59.6218 16.0774 60.2464 15.4242V16.3305H63.3476V11.7289C63.3485 11.6985 63.3518 11.6707 63.3518 11.6386L63.3518 11.604Z" fill="white"/>
<path d="M29.0717 7.61505H28.952C28.0067 7.61505 27.2397 8.38719 27.2397 9.33991V16.3305H30.7839V9.33991C30.7839 8.38719 30.017 7.61505 29.0717 7.61505Z" fill="white"/>
</g>
<defs>
<clipPath id="clip0_22_111">
<rect width="133" height="18" fill="white"/>
</clipPath>
</defs>
</svg>
