<svg width="98" height="22" viewBox="0 0 98 22" fill="none" xmlns="http://www.w3.org/2000/svg">
<path d="M11.1915 20.181C6.0391 20.181 1.85013 16.0624 1.85013 10.9966C1.85013 10.9622 1.85013 10.9279 1.85013 10.9005C1.90598 5.88955 6.074 1.81903 11.1915 1.81903C15.7086 1.81903 19.2902 4.17348 20.3305 9.13635L21.9781 8.39501C20.7354 3.04774 16.6093 0 11.1915 0C5.05469 0 0.0558529 4.8805 0 10.9005C0 10.9348 0 10.9691 0 10.9966C0 17.0646 5.01978 22 11.1915 22C16.4626 22 21.1403 18.712 22.1736 12.8362L20.5329 12.2047C19.5485 16.9822 15.5899 20.181 11.1915 20.181Z" fill="white"/>
<path d="M16.267 10.9005C16.3718 10.8524 16.4695 10.8044 16.5742 10.7563C16.5742 10.7563 12.7553 8.80001 7.86816 6.09549C7.86816 6.09549 8.20328 8.07926 8.26612 10.9005C8.30102 12.39 8.25913 14.1198 8.04969 15.9045C8.04969 15.9114 12.5109 12.7332 16.267 10.9005Z" fill="white"/>
<path d="M31.7383 13.9894C30.1395 13.9894 29.0155 12.8156 29.0155 11.0995C29.0155 11.0309 29.0155 10.9691 29.0225 10.9073C29.1062 9.34228 30.2303 8.20967 31.7802 8.20967C32.5133 8.20967 33.2812 8.49111 33.7211 9.07457L35.2919 7.53011C34.496 6.62402 33.0439 6.14352 31.7034 6.14352C28.8409 6.14352 26.5998 7.99001 26.5021 10.9073C26.5021 10.9691 26.4951 11.0378 26.4951 11.0995C26.4951 14.058 28.7013 16.083 31.6545 16.083C33.2673 16.083 34.5379 15.4858 35.3827 14.5248L33.77 13.0353C33.365 13.5913 32.6459 13.9894 31.7383 13.9894Z" fill="white"/>
<path d="M36.9536 10.9005V15.829H39.2087V10.9005V5.75226H36.9536V10.9005Z" fill="white"/>
<path d="M44.9476 8.97845C43.4745 8.97845 42.2388 9.69234 41.6593 10.9005C41.4289 11.3741 41.3032 11.9232 41.3032 12.5341C41.3032 14.7719 42.9858 16.0349 45.0174 16.0349C46.3858 16.0349 47.4401 15.527 48.0824 14.6209L46.5394 13.6599C46.2392 14.058 45.7505 14.3532 45.0523 14.3532C44.2564 14.3532 43.5094 13.8315 43.4396 13.1039H48.3337C48.3477 12.946 48.3477 12.7607 48.3477 12.5822C48.3477 11.9438 48.236 11.381 48.0335 10.8936C47.5029 9.67175 46.3789 8.97845 44.9476 8.97845ZM43.4326 11.7516C43.4605 11.429 43.6141 11.1338 43.8585 10.9073C44.1308 10.6533 44.5148 10.4886 44.9686 10.4886C45.4363 10.4886 45.7784 10.6533 46.0018 10.9073C46.1973 11.1338 46.2951 11.429 46.2951 11.7516H43.4326Z" fill="white"/>
<path d="M53.2279 8.97845C52.1318 8.97845 51.0078 9.36285 50.2189 10.0973L51.3429 11.2849C51.7478 10.9142 52.3692 10.6053 53.0115 10.6053C53.7027 10.6053 54.2333 10.9142 54.2333 11.5663V11.6761C52.2715 11.6761 49.8977 11.9987 49.8977 13.9139C49.8977 15.4721 51.2801 15.9937 52.3483 15.9937C53.1442 15.9937 53.9191 15.6711 54.2612 15.1288H54.3031V15.8359H56.3348V12.493C56.3278 10.0699 55.49 8.97845 53.2279 8.97845ZM54.2961 13.1588C54.2961 13.9825 53.7934 14.5179 52.8998 14.5179C52.453 14.5179 51.9363 14.3463 51.9363 13.8384C51.9363 13.0558 53.0324 12.9323 54.0099 12.9323H54.2961V13.1588Z" fill="white"/>
<path d="M60.8307 10.1523H60.8028V9.19126H58.6594V15.8221H60.8796V12.4106C60.8796 11.8615 61.2706 10.9073 62.4644 10.9073C62.6389 10.9073 62.8274 10.9211 63.0369 10.976L63.1346 9.06083C63.0229 9.01965 62.8344 9.00592 62.6599 9.00592C61.8291 9.00592 61.1658 9.48642 60.8307 10.1523Z" fill="white"/>
<path d="M69.0131 9.00592C68.0217 9.00592 67.2677 9.47269 66.8558 10.0081H66.8139V9.19812H64.6985V19.0278H66.9186V15.1014H66.9466C67.3655 15.6711 68.1683 16.0212 68.9922 16.0212C71.0238 16.0212 72.2037 14.3395 72.2037 12.493C72.2107 10.6328 70.975 9.00592 69.0131 9.00592ZM68.4686 14.2022C67.4632 14.2022 66.8418 13.3647 66.8418 12.4998C66.8418 11.6624 67.4632 10.7975 68.4686 10.7975C69.5228 10.7975 70.0534 11.6349 70.0534 12.4861C70.0534 13.351 69.5298 14.2022 68.4686 14.2022Z" fill="white"/>
<path d="M76.5603 5.75226H74.3123V15.8221H76.5603V5.75226Z" fill="white"/>
<path d="M81.9084 8.97845C80.8122 8.97845 79.6882 9.36285 78.8993 10.0973L80.0233 11.2849C80.4283 10.9142 81.0496 10.6053 81.6919 10.6053C82.3831 10.6053 82.9137 10.9142 82.9137 11.5663V11.6761C80.9519 11.6761 78.5781 11.9987 78.5781 13.9139C78.5781 15.4721 79.9605 15.9937 81.0287 15.9937C81.8246 15.9937 82.5995 15.6711 82.9416 15.1288H82.9835V15.8359H85.0152V12.493C85.0152 10.0699 84.1704 8.97845 81.9084 8.97845ZM82.9835 13.1588C82.9835 13.9825 82.4808 14.5179 81.5872 14.5179C81.1404 14.5179 80.6237 14.3463 80.6237 13.8384C80.6237 13.0558 81.7198 12.9323 82.6973 12.9323H82.9835V13.1588Z" fill="white"/>
<path d="M90.4747 13.454H90.4328L88.9318 9.19125H86.4673L89.2879 15.7192L89.0714 16.2683C88.855 16.8381 88.6246 17.1607 87.9334 17.1607C87.717 17.1607 87.4307 17.1058 87.2143 17.044L86.97 18.8836C87.2981 18.966 87.7659 19.0278 88.1917 19.0278C89.8883 19.0278 90.6144 18.2178 91.1589 16.8312L94.182 9.19812H91.8222L90.4747 13.454Z" fill="white"/>
<path d="M96.5767 6.31512C95.9274 6.31512 95.4038 6.82995 95.4038 7.46146C95.4038 8.09984 95.9274 8.61466 96.5697 8.61466C97.2121 8.61466 97.7427 8.09984 97.7427 7.46146C97.7427 6.82995 97.219 6.31512 96.5767 6.31512ZM96.5697 8.38127C96.0531 8.38127 95.6342 7.96941 95.6342 7.46146C95.6342 6.9535 96.0531 6.54165 96.5697 6.54165C97.0864 6.54165 97.5053 6.9535 97.5053 7.46146C97.5053 7.97628 97.0864 8.38127 96.5697 8.38127Z" fill="white"/>
<path d="M97.0024 7.71545C96.9815 7.6674 96.9536 7.62622 96.9256 7.58503C96.8977 7.55071 96.8698 7.52325 96.8349 7.50266C96.8139 7.4958 96.8 7.48893 96.779 7.48207C96.786 7.48207 96.786 7.48207 96.786 7.48207C96.8139 7.4752 96.8418 7.46148 96.8698 7.44775C96.9396 7.40656 96.9815 7.35165 97.0024 7.283C97.0234 7.21436 97.0234 7.13886 97.0024 7.07021C96.9815 7.00157 96.9396 6.94666 96.8768 6.91233C96.8349 6.88488 96.786 6.87115 96.7301 6.86428C96.6673 6.85056 96.6115 6.85056 96.5486 6.85056C96.388 6.85056 96.2344 6.85056 96.0739 6.85056H96.0669C96.0669 7.25555 96.0669 7.65368 96.0669 8.0518C96.1716 8.0518 96.2763 8.0518 96.3811 8.0518C96.3811 7.90079 96.3811 7.74978 96.3811 7.59876C96.423 7.59876 96.4648 7.59876 96.5067 7.59876C96.5556 7.59876 96.5905 7.61935 96.6254 7.66054C96.6464 7.688 96.6673 7.71545 96.6813 7.74978C96.7301 7.85274 96.779 7.94884 96.8279 8.0518C96.8279 8.05867 96.8349 8.05867 96.8349 8.05867C96.9396 8.05867 97.0513 8.05867 97.156 8.05867H97.163V8.0518C97.1071 7.92825 97.0583 7.82528 97.0024 7.71545ZM96.6883 7.27614C96.6743 7.32419 96.6464 7.35165 96.6045 7.35851C96.5765 7.36538 96.5416 7.37224 96.5137 7.37224C96.4718 7.37224 96.4299 7.37224 96.388 7.37224C96.388 7.37224 96.388 7.37224 96.3811 7.37224C96.3811 7.26928 96.3811 7.16631 96.3811 7.06335C96.388 7.06335 96.395 7.06335 96.395 7.06335C96.4369 7.06335 96.4788 7.06335 96.5207 7.06335C96.5486 7.06335 96.5835 7.07021 96.6115 7.07708C96.6533 7.0908 96.6813 7.11826 96.6952 7.15945C96.6952 7.20063 96.6952 7.24182 96.6883 7.27614Z" fill="white"/>
</svg>
