<?xml version="1.0" encoding="UTF-8" standalone="no"?>
<svg
   xmlns:dc="http://purl.org/dc/elements/1.1/"
   xmlns:cc="http://creativecommons.org/ns#"
   xmlns:rdf="http://www.w3.org/1999/02/22-rdf-syntax-ns#"
   xmlns:svg="http://www.w3.org/2000/svg"
   xmlns="http://www.w3.org/2000/svg"
   xmlns:sodipodi="http://sodipodi.sourceforge.net/DTD/sodipodi-0.dtd"
   xmlns:inkscape="http://www.inkscape.org/namespaces/inkscape"
   inkscape:version="1.0beta2 (2b71d25, 2019-12-03)"
   sodipodi:docname="tesla-word-logo.ai.svg"
   id="svg836"
   version="1.2"
   viewBox="0 0 800 600"
   height="600pt"
   width="800pt">
  <metadata
     id="metadata842">
    <rdf:RDF>
      <cc:Work
         rdf:about="">
        <dc:format>image/svg+xml</dc:format>
        <dc:type
           rdf:resource="http://purl.org/dc/dcmitype/StillImage" />
        <dc:title></dc:title>
      </cc:Work>
    </rdf:RDF>
  </metadata>
  <defs
     id="defs840" />
  <sodipodi:namedview
     inkscape:current-layer="svg836"
     inkscape:window-maximized="0"
     inkscape:window-y="23"
     inkscape:window-x="0"
     inkscape:cy="446.70811"
     inkscape:cx="399.14702"
     inkscape:zoom="3.36"
     showgrid="false"
     id="namedview838"
     inkscape:window-height="926"
     inkscape:window-width="1650"
     inkscape:pageshadow="2"
     inkscape:pageopacity="0"
     guidetolerance="10"
     gridtolerance="10"
     objecttolerance="10"
     borderopacity="1"
     inkscape:document-rotation="0"
     bordercolor="#666666"
     pagecolor="#ffffff" />
  <path
     style="fill:#ffffff;fill-opacity:1;fill-rule:nonzero;stroke:none"
     d="m 684.71484,288.85937 v 61.57032 h 19.6211 v -40.9961 h 71.39062 v 40.9961 h 19.58985 V 288.97656 Z M 372.53516,269.26172 h 70.03515 c 10.53906,-3.03906 18.3125,-10.97266 20.46485,-19.89063 H 352.89453 v 59.91797 h 91.05469 v 21.07031 h -70.47656 c -10.37891,3.98047 -18.05469,10.80079 -20.20313,19.66407 l -0.375,0.82422 h 110.65234 v -61.4961 h -91.01171 z m 237.43359,80.78906 c 9.80859,-4.15234 15.12109,-11.5 17.15625,-19.92578 h -87.54688 l 0.0703,-80.86719 -19.6211,0.0625 v 100.4961 z m 91.83594,-80.57422 h 75.89062 c 10.625,-3.97265 18.11719,-11.04687 20.26953,-20.03515 H 680.89453 c 2.10938,8.98828 10.28125,16.0625 20.91016,20.03515 m -502.38672,0.42188 H 275.3125 C 285.98828,265.91797 293.71094,258.5 295.89844,249.51172 H 178.82422 c 2.17969,8.98828 9.95703,16.40625 20.59375,20.38672 m 0,80.78515 h 75.89453 c 10.67578,-3.9375 18.39844,-11.42968 20.58594,-20.37109 H 178.82422 c 2.17969,8.94141 9.95703,16.43359 20.59375,20.37109 M 2.035156,249.37109 c 2.28125,8.89063 10.003906,16.28516 20.554688,20.25 h 31.929687 l 1.636719,0.65625 v 80.57032 h 19.945312 v -80.57032 l 1.816407,-0.65625 h 31.968751 c 10.46484,-3.96484 18.21484,-11.35937 20.46094,-20.25 v -0.21875 H 2.035156 Z m 197.382814,59.96875 h 75.89453 c 10.67578,-3.85937 18.39844,-11.39062 20.58594,-20.28906 H 178.82422 c 2.17969,8.89844 9.95703,16.42969 20.59375,20.28906"
     id="path833"
     inkscape:connector-curvature="0" />
</svg>
