<?xml version="1.0" encoding="UTF-8" standalone="no"?>
<svg
   xmlns:dc="http://purl.org/dc/elements/1.1/"
   xmlns:cc="http://creativecommons.org/ns#"
   xmlns:rdf="http://www.w3.org/1999/02/22-rdf-syntax-ns#"
   xmlns:svg="http://www.w3.org/2000/svg"
   xmlns="http://www.w3.org/2000/svg"
   xmlns:sodipodi="http://sodipodi.sourceforge.net/DTD/sodipodi-0.dtd"
   xmlns:inkscape="http://www.inkscape.org/namespaces/inkscape"
   width="301.27pt"
   height="299.98pt"
   viewBox="0 0 301.27 299.98"
   version="1.2"
   id="svg850"
   sodipodi:docname="tesla-icon-logo_wh.svg"
   inkscape:version="1.0beta2 (2b71d25, 2019-12-03)">
  <metadata
     id="metadata854">
    <rdf:RDF>
      <cc:Work
         rdf:about="">
        <dc:format>image/svg+xml</dc:format>
        <dc:type
           rdf:resource="http://purl.org/dc/dcmitype/StillImage" />
        <dc:title></dc:title>
      </cc:Work>
    </rdf:RDF>
  </metadata>
  <sodipodi:namedview
     pagecolor="#ffffff"
     bordercolor="#666666"
     inkscape:document-rotation="0"
     borderopacity="1"
     objecttolerance="10"
     gridtolerance="10"
     guidetolerance="10"
     inkscape:pageopacity="0"
     inkscape:pageshadow="2"
     inkscape:window-width="1479"
     inkscape:window-height="830"
     id="namedview852"
     showgrid="false"
     inkscape:zoom="0.84005597"
     inkscape:cx="200.84666"
     inkscape:cy="199.98667"
     inkscape:window-x="0"
     inkscape:window-y="23"
     inkscape:window-maximized="0"
     inkscape:current-layer="surface9189" />
  <defs
     id="defs839">
    <clipPath
       id="clip1">
      <path
         d="M 13 29 L 289 29 L 289 299.980469 L 13 299.980469 Z M 13 29 "
         id="path833" />
    </clipPath>
    <clipPath
       id="clip2">
      <path
         d="M 0 0 L 301.269531 0 L 301.269531 47 L 0 47 Z M 0 0 "
         id="path836" />
    </clipPath>
  </defs>
  <g
     id="surface9189">
    <g
       style="fill:#ffffff"
       clip-path="url(#clip1)"
       clip-rule="nonzero"
       id="g843">
      <path
         style="stroke:none;fill-rule:nonzero;fill:#ffffff;fill-opacity:1"
         d="M 150.65625 299.980469 L 192.796875 62.949219 C 232.976562 62.949219 245.640625 67.355469 247.472656 85.332031 C 247.472656 85.332031 274.429688 75.285156 288.019531 54.878906 C 234.980469 30.296875 181.6875 29.191406 181.6875 29.191406 L 150.585938 67.066406 L 150.65625 67.058594 L 119.554688 29.1875 C 119.554688 29.1875 66.257812 30.289062 13.222656 54.871094 C 26.808594 75.277344 53.769531 85.328125 53.769531 85.328125 C 55.601562 67.347656 68.265625 62.941406 108.164062 62.910156 L 150.65625 299.980469 "
         id="path841" />
    </g>
    <g
       style="fill:#ffffff"
       clip-path="url(#clip2)"
       clip-rule="nonzero"
       id="g847">
      <path
         style="stroke:none;fill-rule:nonzero;fill:#ffffff;fill-opacity:1"
         d="M 150.636719 18.25 C 193.511719 17.921875 242.59375 24.882812 292.828125 46.773438 C 299.546875 34.6875 301.265625 29.351562 301.265625 29.351562 C 246.347656 7.621094 194.921875 0.1875 150.632812 -0.00390625 C 106.34375 0.1875 54.917969 7.621094 0 29.351562 C 0 29.351562 2.453125 35.929688 8.4375 46.773438 C 58.667969 24.882812 107.757812 17.921875 150.628906 18.25 L 150.636719 18.25 "
         id="path845" />
    </g>
  </g>
</svg>
